Coordinates
version=1
nRows=17
nColumns=24
inDegrees=yes

Units are S.I. units (second, meters, Newtons, ...)
Angles are in degrees.

endheader
time	pelvis_tilt	pelvis_list	pelvis_rotation	pelvis_tx	pelvis_ty	pelvis_tz	hip_flexion_r	hip_adduction_r	hip_rotation_r	knee_angle_r	ankle_angle_r	subtalar_angle_r	mtp_angle_r	hip_flexion_l	hip_adduction_l	hip_rotation_l	knee_angle_l	ankle_angle_l	subtalar_angle_l	mtp_angle_l	lumbar_extension	lumbar_bending	lumbar_rotation
      1.17383333	     -1.40792312	      7.27722356	      1.35026853	      0.11340849	      0.99328219	      0.27389104	     23.24310273	     -7.01680965	     -0.86219192	    -72.40586230	      1.48397094	    -10.67363898	     -3.14591795	     10.80810610	     11.82159755	      0.81921741	    -13.50481496	      3.99700266	     -8.54705404	      3.63571627	      1.76533589	     -5.82066688	      2.56324234
      1.17800000	     -1.37122825	      7.19782200	      1.30333074	      0.11845067	      0.99410266	      0.27387484	     23.78664100	     -6.85520106	     -0.69256179	    -72.21486557	      2.06947155	    -10.93599486	     -3.18731476	     10.20364326	     11.73664900	      0.92900700	    -13.05149784	      4.03801723	     -8.58198357	      3.61891904	      1.70711467	     -5.72368412	      2.53197626
      1.18216667	     -1.29560259	      7.12856439	      1.25806976	      0.12351107	      0.99496378	      0.27383865	     24.26175574	     -6.71287905	     -0.53501742	    -71.94408652	      2.61902754	    -11.22219394	     -3.28382053	      9.53140588	     11.66981391	      1.10579140	    -12.54741022	      4.05033638	     -8.71345795	      3.57951111	      1.60631829	     -5.65480939	      2.50602070
      1.18633333	     -1.28223712	      7.01351543	      1.21521925	      0.12853650	      0.99571832	      0.27383833	     24.78506257	     -6.50966621	     -0.38331724	    -71.59759960	      3.22041709	    -11.39879243	     -3.32207189	      8.97206020	     11.54266610	      1.19152247	    -12.12768678	      4.08983560	     -8.72018811	      3.55992643	      1.57669281	     -5.50227949	      2.47038060
      1.19050000	     -1.25369879	      6.91287357	      1.17644617	      0.13359497	      0.99645797	      0.27382998	     25.26599507	     -6.33131972	     -0.24551070	    -71.18077141	      3.80882505	    -11.58891229	     -3.35574219	      8.38705826	     11.43160538	      1.28685860	    -11.69190848	      4.13894889	     -8.74568414	      3.54132869	      1.55083649	     -5.38969560	      2.43772570
      1.19466667	     -1.14682530	      6.83209967	      1.12863663	      0.13864649	      0.99729024	      0.27380867	     25.64052785	     -6.18123161	     -0.11205041	    -70.69315721	      4.34650885	    -11.81677457	     -3.46368843	      7.67722265	     11.35222646	      1.50026583	    -11.17297889	      4.13020834	     -8.91593470	      3.48694642	      1.39693799	     -5.29538937	      2.40437316
      1.19883333	     -1.15814340	      6.69879693	      1.09831476	      0.14367596	      0.99791323	      0.27380826	     26.12021899	     -5.96857839	      0.00507150	    -70.13355235	      4.90939019	    -11.94361943	     -3.49636668	      7.15989834	     11.20468615	      1.58732955	    -10.77983072	      4.17468351	     -8.92837816	      3.46707322	      1.40310559	     -5.12490565	      2.36978524
      1.20300000	     -1.08374719	      6.60231555	      1.06119596	      0.14871955	      0.99861197	      0.27380162	     26.48436589	     -5.80254906	      0.12119438	    -69.51332854	      5.45378786	    -12.15225507	     -3.60205306	      6.50690840	     11.10445095	      1.77925043	    -10.30146796	      4.19082702	     -9.07429474	      3.41156781	      1.29458049	     -5.01961438	      2.32915169
      1.20716667	     -1.07631974	      6.47089039	      1.03822696	      0.15373838	      0.99918325	      0.27380667	     26.89463810	     -5.59871161	      0.22067740	    -68.81680392	      6.00187919	    -12.27018889	     -3.64700116	      5.97556504	     10.95801286	      1.88231891	     -9.91716653	      4.22428071	     -9.11027568	      3.38482571	      1.27718470	     -4.86739203	      2.29465371
      1.21133333	     -1.03594908	      6.35252108	      1.01560884	      0.15876777	      0.99976732	      0.27381577	     27.24385843	     -5.41306237	      0.31228997	    -68.05512905	      6.52126498	    -12.43093695	     -3.71065669	      5.39017257	     10.82795155	      2.02774765	     -9.49554659	      4.25510113	     -9.19656583	      3.34956997	      1.21781422	     -4.73466470	      2.25401486
      1.21550000	     -0.96411604	      6.25199964	      0.98647676	      0.16380891	      1.00033116	      0.27379892	     27.54228031	     -5.25928884	      0.39304598	    -67.24107427	      6.97661271	    -12.60673383	     -3.82500820	      4.74759180	     10.72222110	      2.22269475	     -9.02716789	      4.26952150	     -9.35883777	      3.29049522	      1.11010322	     -4.60450089	      2.20123177
      1.21966667	     -0.97522059	      6.12022319	      0.98063391	      0.16880671	      1.00074752	      0.27380678	     27.90121390	     -5.06671273	      0.46328886	    -66.35045645	      7.44679543	    -12.72646096	     -3.88090385	      4.25267416	     10.57470184	      2.33788233	     -8.67041340	      4.30405108	     -9.40655831	      3.26048566	      1.11362091	     -4.45469671	      2.16462931
      1.22383333	     -0.91028627	      6.03089842	      0.95718494	      0.17384127	      1.00120471	      0.27380517	     28.16285400	     -4.92963217	      0.53098117	    -65.41879624	      7.85603031	    -12.93484445	     -4.00634611	      3.62527420	     10.47818350	      2.53147931	     -8.21532815	      4.31881877	     -9.57550371	      3.19853600	      1.01008022	     -4.34390183	      2.10533772
      1.22800000	     -0.93416574	      5.90433134	      0.96157026	      0.17883350	      1.00150841	      0.27381190	     28.48807783	     -4.75173787	      0.58229398	    -64.40723425	      8.26925314	    -13.06038057	     -4.06451344	      3.15620309	     10.33484089	      2.64377074	     -7.88209874	      4.35726450	     -9.61852096	      3.16944292	      1.02321040	     -4.19580346	      2.06717387
      1.23216667	     -0.91952652	      5.79478057	      0.96073182	      0.18384031	      1.00179637	      0.27381628	     28.75206314	     -4.59903771	      0.62424246	    -63.34810021	      8.64287609	    -13.25346722	     -4.13612311	      2.62650068	     10.21088818	      2.78412054	     -7.51156659	      4.40315414	     -9.69961964	      3.13587183	      0.98098428	     -4.06594577	      2.01583687
      1.23633333	     -0.85503168	      5.71225353	      0.95021530	      0.18886132	      1.00210611	      0.27381740	     28.94129697	     -4.48086674	      0.66506045	    -62.23425237	      8.91810071	    -13.51288761	     -4.27471003	      2.01501872	     10.11914430	      2.97802638	     -7.08576484	      4.42540997	     -9.86939619	      3.07415897	      0.88328671	     -3.97387233	      1.93893319
      1.24050000	     -0.89452070	      5.60442457	      0.96696601	      0.19385114	      1.00222027	      0.27381659	     29.21729329	     -4.33908911	      0.68843728	    -61.06168941	      9.23451423	    -13.66172706	     -4.34590292	      1.57385839	      9.99487897	      3.09577048	     -6.77506493	      4.47009504	     -9.92068119	      3.04275040	      0.90156543	     -3.84433057	      1.89841434
